<?xml version="1.0" standalone="no"?>
<!DOCTYPE svg PUBLIC "-//W3C//DTD SVG 20010904//EN"
 "http://www.w3.org/TR/2001/REC-SVG-20010904/DTD/svg10.dtd">
<svg version="1.0" xmlns="http://www.w3.org/2000/svg"
 width="800.000000pt" height="800.000000pt" viewBox="0 0 800.000000 800.000000"
 preserveAspectRatio="xMidYMid meet">
<metadata>
Created by potrace 1.14, written by Peter Selinger 2001-2017
</metadata>
<g transform="translate(0.000000,800.000000) scale(0.100000,-0.100000)"
fill="#000000" stroke="none">
<path d="M1359 6090 c-45 -24 -93 -87 -114 -151 -20 -60 -11 -99 45 -189 46
-75 49 -102 16 -135 -47 -47 -105 -69 -186 -69 -95 0 -148 27 -267 137 -112
104 -137 112 -190 64 -48 -43 -35 -125 32 -217 26 -35 54 -57 100 -81 53 -26
69 -40 85 -74 44 -90 36 -146 -49 -367 -22 -58 -54 -165 -69 -236 -16 -72 -36
-141 -45 -155 -24 -37 -113 -67 -195 -67 -57 0 -79 6 -142 36 -64 32 -88 38
-162 42 -83 4 -88 3 -112 -21 -35 -35 -33 -69 4 -101 38 -31 79 -43 200 -57
265 -30 400 -140 400 -324 -1 -200 -47 -326 -151 -417 -62 -54 -100 -116 -92
-149 7 -27 60 -59 96 -59 38 0 79 42 101 105 10 28 23 62 28 77 13 35 71 92
115 113 28 14 51 16 117 10 92 -8 264 -49 280 -66 8 -9 6 -10 -9 -3 -32 14
-194 17 -244 4 -64 -16 -99 -45 -127 -106 -23 -50 -51 -198 -59 -304 -2 -25
-10 -81 -18 -125 -9 -44 -20 -120 -26 -170 -6 -49 -16 -131 -22 -182 -28 -223
21 -303 193 -311 138 -7 227 26 269 101 l21 38 23 -49 c31 -67 71 -86 195 -90
121 -4 171 17 210 90 l26 47 24 -47 c36 -67 74 -85 189 -90 95 -5 97 -5 216
-68 140 -73 280 -122 455 -159 99 -20 151 -38 250 -85 201 -95 221 -96 408
-35 185 62 285 83 527 114 363 47 542 35 820 -53 115 -37 127 -35 236 34 52
34 118 68 148 77 108 31 239 -2 376 -95 98 -66 110 -91 109 -222 -1 -78 -7
-122 -22 -170 -12 -35 -18 -68 -14 -72 4 -4 25 4 46 18 20 14 71 42 112 61 63
30 89 36 165 41 l90 5 57 -61 c68 -73 118 -98 165 -83 37 13 51 32 67 92 19
70 46 106 103 133 58 29 77 27 179 -18 105 -46 169 -41 216 19 65 82 -15 190
-227 306 -53 29 -113 66 -133 83 -49 38 -108 114 -108 139 0 18 1 18 25 3 13
-9 44 -16 68 -16 52 0 110 -35 177 -105 58 -61 107 -92 174 -109 79 -21 159
-1 191 48 22 33 11 51 -59 101 -34 24 -70 53 -80 64 -19 21 -19 21 32 21 39 0
57 5 79 24 27 23 28 30 34 133 5 93 6 98 7 35 3 -111 34 -165 111 -191 42 -14
173 -14 223 -1 39 11 98 69 99 98 0 9 8 -3 17 -28 23 -60 70 -85 132 -71 83
18 101 59 125 286 9 83 18 157 20 165 2 8 9 61 15 118 13 124 22 145 62 158
46 13 67 49 74 125 6 59 4 67 -18 93 -17 20 -33 29 -54 28 -16 0 -68 -1 -116
-1 -101 -1 -119 -12 -138 -81 l-11 -41 -22 42 c-31 59 -75 79 -184 86 -68 4
-97 2 -125 -10 l-38 -16 0 26 c0 35 59 90 154 143 86 47 136 86 136 104 0 72
-200 56 -394 -30 -45 -20 -94 -39 -111 -42 -16 -3 -40 -12 -53 -20 -30 -19
-131 -11 -193 16 -25 11 -84 51 -130 88 -111 91 -212 151 -339 201 -114 45
-304 91 -412 100 -37 3 -68 9 -68 12 0 3 99 28 220 56 170 38 219 52 215 63
-3 7 -5 20 -5 29 0 10 -6 13 -16 9 -52 -20 -64 -19 -64 6 0 17 -9 29 -27 37
-16 8 -36 17 -45 22 -29 15 -41 10 -23 -8 16 -15 15 -18 -14 -45 -16 -15 -37
-28 -46 -28 -16 0 -65 -28 -76 -44 -7 -9 -15 -7 -91 12 -38 10 -38 10 -38 -20
0 -25 -3 -28 -20 -23 -11 3 -20 2 -20 -3 0 -10 -160 -52 -198 -52 -11 0 -22 8
-25 18 -3 13 -7 10 -18 -13 l-13 -30 -4 38 c-2 20 -7 35 -12 32 -4 -3 -6 -15
-3 -28 4 -18 3 -19 -6 -7 -6 9 -11 10 -11 3 0 -6 -9 -9 -20 -6 -11 3 -20 0
-20 -6 0 -6 -5 -11 -11 -11 -6 0 -8 9 -4 21 5 15 4 19 -4 14 -7 -4 -11 -15 -9
-24 4 -26 -19 -50 -42 -44 -16 4 -20 14 -20 44 0 26 -5 42 -15 45 -17 7 -86
-30 -98 -53 -7 -12 -28 -13 -121 -7 -129 8 -145 0 -101 -46 47 -50 37 -56
-155 -90 -25 -4 -71 -11 -102 -14 -56 -7 -57 -6 -73 24 -13 26 -21 30 -55 30
-22 0 -40 3 -40 8 0 14 -53 33 -64 22 -5 -5 -14 -10 -20 -10 -5 0 -2 6 8 13
18 13 13 47 -6 47 -6 0 -7 11 -4 26 6 23 5 24 -15 14 -11 -7 -30 -9 -41 -7
-12 4 -21 0 -24 -11 -15 -48 -23 -54 -17 -15 l6 43 -46 -17 c-57 -21 -90 -9
-111 42 -8 19 -19 35 -24 35 -13 0 -23 -28 -13 -35 5 -3 7 -14 4 -25 -3 -11
-10 -17 -16 -13 -6 4 -8 -2 -4 -16 6 -26 -28 -50 -46 -32 -8 8 -4 11 13 11 45
0 6 18 -45 21 -39 3 -51 0 -53 -13 -2 -9 6 -18 19 -21 17 -5 20 -11 16 -29 -5
-17 -1 -27 12 -35 16 -10 18 -9 14 5 -2 10 5 22 16 29 16 10 20 9 24 -8 3 -10
2 -19 -3 -19 -4 0 -11 -7 -14 -16 -5 -13 -4 -14 7 -6 8 7 17 9 20 5 4 -3 14 0
22 7 13 11 18 11 28 0 10 -10 9 -12 -5 -7 -10 4 -19 2 -19 -3 -1 -6 -3 -14 -4
-20 -1 -5 -3 -13 -4 -17 0 -4 -6 -2 -13 5 -17 17 -32 15 -58 -8 -13 -11 -26
-17 -29 -13 -3 5 -17 10 -31 12 -14 1 -33 7 -43 12 -13 7 -19 6 -23 -5 -5 -14
-8 -14 -21 -1 -8 8 -19 15 -24 15 -12 0 -11 -17 2 -25 6 -4 8 -13 5 -21 -3 -7
-1 -16 4 -19 6 -4 10 -1 10 6 0 10 3 10 12 1 7 -7 29 -12 50 -12 30 0 36 -3
31 -15 -7 -21 -142 -19 -161 1 -8 9 -9 14 -2 14 7 0 9 8 5 20 -4 13 -1 22 8
25 7 3 14 12 14 20 0 10 -5 11 -18 4 -15 -7 -17 -6 -13 6 4 8 10 15 15 15 5 0
9 4 9 10 0 5 -7 7 -15 4 -11 -5 -13 -2 -9 10 4 9 15 14 28 12 11 -2 16 -1 9 1
-7 2 -10 10 -7 17 3 9 -13 12 -66 10 -58 -3 -70 0 -70 13 0 10 -6 13 -16 9 -9
-3 -29 -6 -45 -6 -22 0 -27 -4 -22 -16 3 -9 0 -20 -8 -25 -12 -8 -12 -11 1
-19 12 -8 11 -10 -7 -10 -12 0 -29 -3 -38 -6 -11 -5 -18 0 -22 15 -3 11 -9 18
-14 16 -4 -3 -6 -12 -2 -20 4 -11 1 -13 -11 -9 -11 4 -15 2 -11 -7 9 -26 -13
-43 -55 -43 -33 -1 -40 -4 -37 -18 6 -20 -15 -31 -61 -33 -44 -3 -51 -13 -23
-36 l23 -19 -33 6 c-107 18 -246 50 -325 75 -92 29 -184 83 -168 99 27 27 191
116 289 157 63 26 113 48 112 49 -1 1 -45 -9 -97 -22 -137 -34 -133 -28 15 22
221 75 275 96 269 105 -3 5 -47 9 -97 9 -131 0 -208 27 -237 81 -8 15 -1 12
32 -11 53 -38 123 -50 241 -43 75 5 87 4 87 -10 0 -24 19 -31 38 -14 9 9 46
26 82 40 36 13 88 36 115 50 28 14 61 28 75 30 14 3 43 9 65 15 22 5 47 10 55
10 8 0 42 5 75 11 33 6 61 7 63 2 3 -8 134 13 246 38 27 7 51 9 54 6 3 -3 -3
-5 -13 -5 -10 0 -16 -2 -13 -5 3 -3 19 -2 37 1 24 5 29 9 19 16 -9 6 -6 7 9 3
19 -5 788 175 814 191 13 8 11 34 -2 34 -7 0 -17 7 -24 16 -37 51 -536 4 -980
-92 -324 -70 -742 -183 -935 -253 l-85 -31 -27 30 c-16 17 -28 37 -28 45 0 21
40 45 77 45 42 0 62 30 56 84 -7 53 -68 112 -126 121 -23 3 -66 11 -94 16 -52
10 -53 11 -53 47 0 56 -26 165 -49 211 l-21 41 38 24 c95 59 204 105 322 135
141 36 166 49 186 96 18 44 10 61 -33 76 -81 26 -169 -2 -331 -107 -114 -74
-156 -94 -211 -101 -40 -5 -53 -1 -95 25 -27 17 -69 34 -95 38 -25 4 -61 14
-81 22 -19 8 -45 18 -58 23 l-23 9 22 42 c64 126 96 151 244 187 102 25 135
49 135 96 0 65 -64 113 -128 95 -75 -20 -147 -72 -257 -185 -116 -118 -138
-135 -179 -135 -20 0 -27 6 -32 28 -22 106 -89 184 -190 221 -69 26 -130 26
-222 1 -84 -24 -82 -23 -82 -8 0 6 -18 49 -40 94 -22 46 -40 88 -40 94 0 6 11
37 25 70 43 102 30 155 -49 191 -51 23 -72 23 -117 -1z m115 -17 c33 -15 53
-40 41 -51 -3 -3 -13 2 -23 11 -10 9 -32 22 -49 28 -37 12 -61 3 -110 -44 -24
-22 -33 -26 -33 -15 0 9 18 32 40 52 45 41 79 46 134 19z m-8 -150 c-4 -15
-18 -42 -31 -58 l-24 -30 -1 38 c0 21 7 54 15 74 14 33 17 35 31 21 11 -11 14
-25 10 -45z m48 -176 c5 -21 4 -21 -14 3 -23 29 -26 48 -6 31 8 -6 16 -22 20
-34z m-754 -4 c14 -9 59 -49 100 -88 92 -86 153 -118 238 -123 76 -5 140 11
192 49 47 34 54 36 40 10 -5 -11 -40 -35 -77 -53 -58 -28 -78 -33 -138 -33
-97 1 -159 33 -276 141 -93 85 -128 101 -157 72 -9 -9 -12 -8 -12 5 0 17 26
36 50 37 9 0 27 -8 40 -17z m1860 -53 c35 -25 42 -51 21 -78 -12 -16 -38 -25
-106 -37 -125 -21 -149 -31 -189 -75 -34 -37 -126 -216 -126 -244 0 -10 24
-13 102 -15 56 -1 121 -7 143 -13 57 -17 140 -102 155 -159 17 -61 6 -197 -23
-290 -27 -87 -102 -231 -157 -304 -163 -216 -550 -504 -788 -586 -50 -17 -205
-38 -176 -24 7 4 -9 27 -39 56 -48 48 -81 94 -93 132 -4 9 -15 17 -25 17 -12
0 -19 7 -19 20 0 11 -7 20 -15 20 -8 0 -15 9 -15 20 0 20 -34 35 -72 32 -16
-1 -33 34 -53 106 -6 21 -4 22 22 15 56 -15 84 -8 120 33 18 22 99 126 179
232 142 189 145 194 125 208 -12 9 -21 22 -21 31 0 10 -6 13 -16 9 -44 -17
-76 32 -35 54 27 14 31 13 31 -10 0 -11 4 -20 8 -20 9 0 26 51 36 110 4 19 16
70 28 113 19 72 20 79 4 95 -29 32 -20 47 26 43 10 -1 34 27 68 83 34 57 66
96 96 117 24 18 44 40 44 50 0 16 -50 61 -79 70 -8 3 -25 -5 -39 -18 -14 -13
-31 -23 -37 -23 -46 0 -205 -111 -325 -227 -41 -40 -93 -91 -116 -112 -22 -21
-51 -63 -65 -92 -13 -30 -45 -96 -71 -147 -26 -51 -52 -108 -58 -127 -6 -19
-16 -37 -21 -40 -5 -4 -4 6 1 21 6 15 9 29 6 31 -2 3 -19 -40 -37 -95 -28 -87
-35 -98 -53 -95 -12 3 -31 -5 -43 -16 -12 -12 -26 -21 -32 -21 -5 0 -12 -6
-15 -12 -19 -40 10 108 35 185 159 475 340 731 616 871 100 51 166 69 253 69
81 0 129 -17 201 -74 49 -39 82 -115 73 -170 -6 -34 -4 -41 7 -37 8 3 39 13
69 21 50 15 65 27 157 125 84 90 115 116 180 150 88 47 113 50 153 22z m533
-315 c50 -10 28 -21 -37 -17 -78 5 -128 -15 -282 -113 -106 -68 -148 -88 -201
-98 -54 -10 -47 11 7 22 61 13 112 38 205 101 88 59 164 98 212 108 38 8 44 8
96 -3z m-30 -70 c-1 -5 -27 -15 -57 -21 -81 -16 -130 -37 -255 -108 -124 -71
-175 -93 -169 -73 4 14 259 144 367 187 75 29 118 35 114 15z m-793 -46 c12
-7 11 -8 -6 -9 -11 0 -29 7 -40 16 -18 14 -18 15 6 8 14 -3 32 -10 40 -15z
m505 -526 c55 -7 90 -25 106 -55 9 -17 5 -16 -27 6 -21 14 -49 26 -62 26 -35
0 -111 21 -119 33 -4 6 4 8 23 4 16 -4 52 -10 79 -14z m66 -113 c10 -6 19 -14
19 -19 0 -5 -30 -27 -67 -50 -65 -39 -68 -40 -71 -19 -5 31 16 65 52 82 37 19
42 19 67 6z m-2537 -46 c97 -46 166 -54 252 -29 33 9 74 26 93 37 33 21 33 21
23 1 -6 -11 -35 -31 -64 -44 -43 -19 -70 -24 -143 -24 -82 0 -96 3 -156 32
-84 42 -168 60 -215 45 -36 -11 -46 0 -16 18 35 22 141 5 226 -36z m16 -67
c36 -11 59 -22 52 -25 -17 -5 -192 39 -192 49 0 11 66 0 140 -24z m487 -49
c-2 -13 -4 -5 -4 17 -1 22 1 32 4 23 2 -10 2 -28 0 -40z m342 -315 c26 -13 26
-13 1 -7 -31 8 -48 21 -61 48 -8 17 -6 16 12 -4 11 -14 33 -30 48 -37z m3579
-70 c-4 -22 -58 -31 -58 -10 0 20 10 27 37 27 18 0 24 -5 21 -17z m792 -4
c277 -31 526 -131 715 -285 96 -79 184 -123 259 -131 33 -3 53 -10 49 -16 -10
-16 -108 -1 -166 26 -28 13 -86 51 -127 84 -102 81 -151 113 -245 161 -153 76
-327 124 -525 143 -58 6 -121 13 -140 16 -33 6 -34 6 -10 13 26 8 31 8 190
-11z m-1400 -19 c0 -5 -5 -10 -11 -10 -5 0 -7 5 -4 10 3 6 8 10 11 10 2 0 4
-4 4 -10z m-98 -42 c-9 -9 -12 -7 -12 12 0 19 3 21 12 12 9 -9 9 -15 0 -24z
m93 -8 c3 -5 -1 -10 -9 -10 -9 0 -16 5 -16 10 0 6 4 10 9 10 6 0 13 -4 16 -10z
m-82 -54 c-23 -31 -56 -47 -74 -35 -11 7 -9 9 9 9 26 0 67 36 49 44 -7 2 -2 5
11 5 23 1 23 1 5 -23z m-722 -18 c9 -4 21 -2 26 3 5 5 9 1 9 -10 0 -10 -8 -24
-18 -30 -14 -9 -22 -7 -38 9 -11 11 -17 26 -13 36 3 8 9 12 12 7 3 -5 13 -12
22 -15z m479 -8 c0 -5 -4 -10 -10 -10 -5 0 -10 5 -10 10 0 6 5 10 10 10 6 0
10 -4 10 -10z m-2778 -30 c48 -11 104 -28 125 -40 21 -11 29 -19 18 -16 -99
23 -155 30 -250 30 -133 1 -154 -8 -238 -100 -32 -35 -63 -64 -68 -64 -35 0
131 206 171 212 41 7 150 -3 242 -22z m2843 0 c3 -5 1 -10 -4 -10 -6 0 -11 5
-11 10 0 6 2 10 4 10 3 0 8 -4 11 -10z m3239 -86 c35 -13 12 -22 -71 -26 -65
-4 -111 -13 -178 -37 -49 -18 -103 -34 -120 -37 l-30 -5 35 20 c34 20 200 76
250 84 41 7 97 7 114 1z m-6522 -71 c-32 -44 -121 -128 -128 -120 -4 3 26 40
66 82 73 74 101 92 62 38z m6488 8 c0 -4 -21 -16 -47 -26 -65 -24 -117 -58
-185 -123 -59 -56 -64 -55 -52 7 5 22 19 40 48 60 84 58 236 111 236 82z
m-5772 -103 c26 -25 55 -60 65 -77 18 -30 18 -31 0 -37 -46 -14 -88 -41 -105
-69 l-19 -30 6 81 c8 91 -3 147 -37 190 l-22 28 33 -20 c18 -10 54 -40 79 -66z
m-158 48 c14 -6 34 -28 45 -48 18 -34 18 -43 7 -160 -18 -183 -18 -182 -79
-186 -74 -4 -79 6 -66 126 13 117 8 132 -47 132 -35 0 -43 -5 -60 -32 -12 -20
-20 -51 -20 -79 0 -25 -7 -90 -15 -145 -21 -139 -53 -368 -60 -441 -9 -85 3
-107 58 -100 46 6 67 28 67 69 0 55 31 223 43 230 19 12 92 9 111 -5 16 -12
16 -20 -4 -162 -23 -170 -45 -227 -100 -263 -33 -22 -43 -23 -152 -20 -113 3
-119 4 -145 31 -27 26 -28 32 -27 120 0 50 6 137 13 192 7 55 16 134 21 175
11 93 24 146 40 165 10 12 10 18 0 30 -7 8 -10 25 -7 37 3 13 11 64 17 113 13
103 47 186 87 212 18 12 56 20 112 24 92 6 122 3 161 -15z m3215 -1 c62 -31
70 -58 56 -188 -7 -61 -18 -125 -26 -143 -13 -32 -17 -34 -64 -34 -40 0 -53 4
-61 19 -8 16 -6 22 7 30 14 8 15 13 5 19 -9 6 -11 27 -7 74 6 76 -4 91 -57 86
-45 -4 -58 -34 -58 -139 0 -78 2 -89 31 -135 18 -27 51 -70 74 -96 54 -60 85
-144 85 -231 0 -36 -4 -69 -10 -72 -5 -3 -10 -27 -10 -53 0 -61 -24 -149 -47
-174 -34 -37 -67 -47 -176 -50 -94 -2 -109 0 -134 18 -46 34 -55 60 -49 149 6
95 26 215 38 232 12 16 63 26 88 18 36 -11 40 -36 27 -142 -7 -55 -11 -105 -9
-111 5 -16 87 -15 100 1 16 19 35 143 30 198 -6 54 -37 106 -113 189 -77 84
-97 191 -68 368 13 81 34 125 76 156 52 38 202 45 272 11z m-2015 0 c8 -10 11
-31 6 -63 -45 -348 -49 -412 -27 -420 8 -3 11 0 7 6 -8 13 63 145 129 240 13
18 25 22 66 22 83 0 84 1 -65 -253 -104 -178 -102 -154 -27 -387 69 -212 68
-230 -17 -230 -39 0 -72 23 -72 52 0 28 -71 228 -80 223 -7 -4 -21 -86 -35
-203 -8 -59 -22 -72 -79 -72 -47 0 -69 23 -60 64 3 17 9 35 11 39 3 5 7 46 9
91 2 45 10 104 18 131 8 26 13 52 10 57 -6 9 14 186 42 371 8 54 14 115 14
137 0 21 7 45 15 54 8 8 11 17 6 20 -12 8 -2 86 15 114 11 17 24 22 58 22 27
0 48 -6 56 -15z m440 -5 c12 -22 5 -60 -11 -60 -6 0 -7 -9 -4 -20 10 -32 -12
-50 -61 -50 -52 0 -68 21 -58 78 10 54 29 72 80 72 33 0 46 -5 54 -20z m1848
8 c15 -15 16 -68 1 -68 -6 0 -8 -7 -5 -16 12 -31 -12 -54 -57 -54 -53 0 -67
13 -67 62 0 60 24 88 74 88 23 0 47 -5 54 -12z m1407 -1 c17 -13 17 -21 6
-128 -13 -133 -47 -397 -62 -484 -11 -68 -39 -293 -46 -375 -7 -71 -32 -100
-90 -100 -60 0 -65 14 -47 146 8 60 21 163 29 229 8 66 19 152 25 190 11 74
47 354 57 442 3 31 14 61 25 73 22 23 75 27 103 7z m691 -49 c8 -9 9 -31 4
-73 -8 -69 -5 -85 19 -85 26 0 41 -21 41 -57 0 -37 -25 -83 -45 -83 -39 0 -71
-121 -81 -314 -3 -55 -9 -107 -15 -118 -5 -10 -12 -78 -16 -150 -6 -148 -11
-158 -73 -158 -51 0 -73 26 -72 87 2 48 12 140 52 457 l21 168 -20 22 c-33 35
-29 100 8 134 24 22 32 40 40 92 13 79 37 105 90 96 19 -3 40 -11 47 -18z
m-6166 -48 c-8 -30 -16 -40 -28 -38 -27 5 -25 36 4 63 15 14 29 23 31 21 2 -2
-1 -23 -7 -46z m437 -196 c-2 -104 -2 -106 25 -129 33 -28 102 -41 141 -26
l29 11 -7 -67 c-10 -105 -9 -103 -53 -87 -74 26 -151 11 -171 -33 -6 -14 -19
-79 -28 -144 -12 -83 -21 -119 -30 -119 -16 0 -16 -11 2 145 9 72 18 146 20
165 2 19 13 94 24 165 11 72 23 151 26 178 11 85 24 49 22 -59z m581 65 c12
-8 29 -29 38 -47 18 -38 15 -85 -16 -312 -11 -74 -24 -184 -30 -243 -12 -124
-22 -157 -50 -164 -16 -4 -18 -9 -10 -19 8 -9 8 -18 0 -33 -19 -37 -50 -46
-152 -45 -109 1 -136 12 -164 66 -21 40 -17 99 30 438 36 267 57 333 114 365
34 19 207 15 240 -6z m417 11 c59 -13 85 -51 85 -122 0 -71 -66 -597 -80 -632
-5 -14 -16 -26 -24 -26 -10 0 -14 -9 -13 -26 3 -46 -40 -68 -131 -69 -164 0
-192 23 -192 159 0 44 4 107 10 140 5 34 21 147 35 253 37 286 66 333 205 333
36 0 83 -5 105 -10z m1185 -3 c58 -29 59 -70 11 -432 -11 -82 -25 -193 -31
-245 -17 -147 -19 -156 -40 -175 -17 -15 -28 -17 -68 -9 l-47 9 0 55 c1 30 8
96 17 145 9 50 22 144 28 210 6 66 16 142 21 169 15 80 12 114 -12 126 -26 15
-66 5 -77 -18 -5 -9 -17 -80 -26 -157 -28 -225 -44 -326 -57 -341 -8 -10 -9
-17 0 -28 12 -14 -8 -149 -25 -166 -5 -5 -34 -6 -64 -2 -51 6 -55 9 -58 35 -2
15 6 87 17 160 11 72 23 166 26 208 4 42 11 94 16 115 5 21 16 99 23 172 17
168 25 181 110 164 45 -9 60 -8 83 3 34 18 119 19 153 2z m427 -14 c29 -16 31
-16 48 1 23 23 78 18 83 -7 7 -33 -8 -86 -32 -114 -24 -30 -26 -38 -55 -260
-28 -209 -54 -243 -193 -253 -84 -5 -108 -19 -95 -54 5 -12 20 -16 66 -16 33
0 62 -4 66 -9 3 -5 20 -7 38 -4 26 4 38 0 59 -22 32 -32 43 -77 35 -150 -9
-87 -30 -120 -94 -146 -43 -17 -74 -22 -145 -21 -100 0 -139 12 -163 49 -22
33 -21 122 1 165 12 21 18 56 19 94 0 37 8 77 19 103 17 36 18 47 8 75 -15 39
-15 76 -2 164 5 37 16 120 25 184 16 121 46 201 83 222 51 29 178 29 229 -1z
m1422 7 c42 -19 45 -20 70 -3 19 12 45 17 96 16 62 -1 72 -4 92 -28 26 -30 29
-87 12 -215 -5 -41 -16 -127 -24 -190 -9 -63 -19 -142 -25 -175 -5 -33 -12
-97 -16 -142 -8 -99 -25 -123 -84 -123 -70 0 -72 20 -31 320 11 85 28 201 37
257 12 77 13 106 4 122 -14 28 -41 27 -70 -3 -24 -27 -35 -66 -50 -191 -5 -44
-16 -138 -25 -210 -31 -263 -30 -257 -55 -277 -18 -15 -33 -18 -60 -13 -45 8
-63 31 -55 70 3 17 8 59 12 95 3 36 12 75 19 87 8 13 12 33 8 47 -3 13 4 105
16 205 24 195 22 211 -26 211 -48 0 -54 -22 -94 -365 -26 -224 -43 -320 -60
-340 -11 -13 -25 -16 -58 -12 -24 3 -49 10 -54 15 -11 11 3 148 23 222 5 19
13 96 19 170 11 167 34 316 50 335 9 11 9 15 1 15 -19 0 -12 56 10 84 23 29
74 36 108 14 14 -9 27 -8 57 5 53 22 100 21 153 -3z m741 2 c27 -22 28 -4 -36
-502 -10 -74 -18 -169 -19 -210 -2 -141 -22 -167 -105 -140 -29 10 -46 10 -71
1 -48 -16 -160 -14 -186 4 -39 27 -39 58 -3 345 6 47 17 144 26 215 33 279 38
294 105 290 66 -4 70 -16 51 -140 -6 -39 -16 -122 -23 -185 -6 -63 -19 -171
-29 -240 -20 -144 -16 -170 30 -170 52 0 71 54 91 250 5 52 13 124 18 160 5
36 14 110 21 165 14 116 31 162 63 168 40 8 45 7 67 -11z m533 1 c-4 -17 5
-16 24 2 20 20 82 10 105 -16 9 -11 20 -40 23 -64 7 -44 -15 -288 -41 -453 -8
-52 -17 -142 -21 -200 -3 -59 -10 -113 -16 -119 -14 -18 -70 -16 -105 4 -29
17 -31 17 -51 -1 -12 -11 -42 -21 -71 -24 -47 -4 -52 -3 -90 36 -46 45 -47 53
-29 209 12 112 40 195 74 222 14 10 61 38 106 61 65 34 84 49 95 76 16 39 18
82 5 117 -18 48 -91 7 -91 -51 0 -12 -6 -38 -14 -56 -12 -29 -21 -35 -57 -41
-59 -10 -69 6 -62 99 7 94 45 174 93 199 40 20 127 20 123 0z m825 -2 c12 -6
29 -26 38 -43 19 -37 16 -131 -11 -309 -9 -57 -22 -162 -30 -234 -16 -151 -26
-185 -55 -185 -18 0 -19 -2 -8 -21 11 -18 10 -23 -14 -43 -32 -28 -99 -40
-176 -30 -79 9 -99 18 -117 53 -18 35 -20 157 -5 259 6 37 21 150 35 251 28
210 54 282 109 308 37 16 199 13 234 -6z m380 7 c13 -13 14 -67 3 -108 -5 -17
-18 -29 -41 -36 -51 -17 -70 -49 -81 -140 -5 -43 -16 -126 -24 -184 -7 -58
-19 -154 -26 -215 -6 -60 -19 -126 -28 -145 -15 -32 -20 -35 -63 -38 -66 -4
-69 6 -52 157 8 68 18 129 21 135 4 6 8 36 9 66 4 81 52 454 64 484 8 23 15
26 55 26 32 0 47 -5 52 -15 5 -14 8 -14 22 -2 31 28 70 34 89 15z m-4756 -16
c8 -8 7 -37 -2 -99 -6 -48 -14 -115 -17 -148 -3 -34 -12 -68 -21 -78 -12 -13
-13 -20 -5 -25 9 -6 8 -35 -2 -117 -8 -61 -21 -164 -29 -230 -12 -101 -17
-122 -36 -137 -25 -20 -56 -23 -96 -8 -24 10 -26 14 -20 48 3 20 11 84 17 142
6 58 16 119 23 135 7 17 13 58 14 92 3 112 42 397 59 422 13 20 21 23 60 18
25 -2 49 -9 55 -15z m1836 12 c27 -8 29 -39 7 -209 -12 -88 -20 -123 -33 -133
-14 -10 -14 -14 -3 -21 11 -7 11 -24 2 -97 -7 -49 -16 -129 -21 -179 -17 -160
-21 -182 -42 -205 -18 -19 -28 -21 -66 -16 -25 3 -48 9 -51 12 -8 8 26 295 40
329 6 17 11 48 10 70 -1 22 9 128 23 235 28 208 32 220 85 220 14 0 36 -3 49
-6z m1422 -880 c0 -13 -30 -34 -48 -34 -12 0 -4 39 11 58 11 14 37 -2 37 -24z
m582 -122 c58 -43 74 -59 65 -69 -9 -8 -153 103 -181 140 -39 51 -31 56 17 10
23 -22 68 -59 99 -81z m-337 -145 c103 -54 190 -119 230 -172 37 -48 23 -59
-16 -12 -38 46 -130 112 -228 163 -99 51 -221 166 -221 207 0 3 33 -28 73 -67
51 -51 98 -85 162 -119z m-3965 159 c41 -13 131 -36 199 -50 67 -15 148 -38
178 -52 58 -28 65 -43 11 -25 -18 6 -87 21 -153 35 -180 36 -404 115 -330 116
11 0 54 -11 95 -24z m2740 1 c100 -24 101 -34 4 -33 -115 1 -207 -28 -312 -99
-43 -28 -86 -54 -95 -58 -12 -4 -45 6 -90 28 -119 57 -248 78 -472 78 -120 1
-235 -5 -314 -16 -68 -9 -128 -14 -132 -11 -19 11 -7 36 24 48 49 21 306 39
432 32 132 -9 231 -27 365 -66 55 -17 110 -30 124 -30 13 0 48 16 77 36 133
92 259 121 389 91z m1558 -84 c36 -17 43 -43 10 -43 -27 0 -102 36 -119 57
-12 14 -9 15 31 8 25 -4 60 -14 78 -22z m-3279 -62 c7 -5 11 -13 7 -19 -9 -15
-289 -102 -329 -102 -33 0 -136 47 -166 76 -12 10 -5 10 34 -1 73 -22 121 -18
230 19 100 34 194 46 224 27z m2979 -222 c47 -21 78 -29 102 -26 47 5 82 -11
78 -37 -5 -35 -44 -31 -104 10 -103 71 -219 54 -329 -47 -57 -52 -68 -71 -75
-129 -4 -36 -9 -45 -25 -45 -10 0 -26 12 -34 26 -14 25 -12 32 18 102 18 41
47 88 64 105 81 78 192 93 305 41z m-543 -79 c41 -15 22 -26 -54 -33 -58 -5
-171 -37 -253 -72 -25 -10 -23 8 7 55 19 31 33 41 67 48 58 13 201 14 233 2z"/>
<path d="M2320 5050 c0 -5 -6 -10 -12 -10 -7 0 -22 -19 -32 -42 -11 -24 -31
-53 -44 -65 l-25 -23 31 0 c21 0 35 -7 42 -21 24 -44 -41 -68 -79 -30 -19 19
-20 19 -61 -11 -29 -22 -38 -34 -31 -41 13 -13 15 -117 2 -117 -11 0 -21 36
-21 78 0 35 -7 39 -33 19 -16 -11 -16 -18 -6 -66 13 -62 0 -90 -26 -55 -14 18
-14 17 -15 -12 0 -34 -23 -63 -35 -44 -10 16 -34 12 -52 -10 -24 -27 -29 -25
-37 12 -9 44 17 83 44 68 11 -6 21 -18 21 -28 1 -9 4 -3 8 13 4 21 12 30 26
30 21 0 38 36 22 46 -5 4 -30 -3 -56 -14 -56 -26 -166 -27 -255 -3 -67 18 -78
13 -96 -37 l-11 -32 29 34 c46 56 71 20 31 -45 -20 -34 -18 -39 18 -35 19 2 2
-42 -29 -71 -15 -14 -28 -33 -28 -42 0 -9 -3 -16 -8 -16 -4 0 -40 -31 -79 -70
-67 -65 -112 -88 -113 -57 -1 28 -38 -63 -50 -124 -11 -55 -11 -73 0 -99 28
-68 149 -122 190 -85 10 9 44 23 77 32 54 14 134 61 210 122 18 14 50 40 73
56 99 73 223 180 320 276 88 87 113 119 149 191 31 62 46 103 49 142 4 49 1
60 -29 106 -18 28 -38 49 -45 46 -19 -7 -36 18 -22 32 9 9 9 12 0 12 -7 0 -12
-4 -12 -10z"/>
<path d="M970 2644 c0 -8 5 -12 10 -9 6 4 8 11 5 16 -9 14 -15 11 -15 -7z"/>
<path d="M4330 2850 c0 -5 5 -10 10 -10 6 0 10 5 10 10 0 6 -4 10 -10 10 -5 0
-10 -4 -10 -10z"/>
<path d="M6000 3120 c0 -5 7 -10 15 -10 8 0 15 5 15 10 0 6 -7 10 -15 10 -8 0
-15 -4 -15 -10z"/>
<path d="M6790 3430 c0 -5 5 -10 11 -10 5 0 7 5 4 10 -3 6 -8 10 -11 10 -2 0
-4 -4 -4 -10z"/>
<path d="M6570 2650 c0 -5 4 -10 9 -10 6 0 13 5 16 10 3 6 -1 10 -9 10 -9 0
-16 -4 -16 -10z"/>
<path d="M1468 3333 c-30 -8 -44 -75 -73 -348 -8 -77 -17 -159 -20 -181 -7
-48 11 -74 50 -74 36 0 52 34 64 140 6 52 15 127 21 165 41 291 37 319 -42
298z m-5 -284 c-7 -56 -16 -105 -19 -108 -4 -3 -4 17 0 44 4 28 9 78 13 112 3
34 9 61 12 58 4 -2 1 -50 -6 -106z m-26 -191 c-2 -13 -4 -5 -4 17 -1 22 1 32
4 23 2 -10 2 -28 0 -40z"/>
<path d="M1924 3330 c-29 -11 -34 -28 -50 -150 -37 -294 -47 -419 -34 -435 18
-22 67 -19 80 5 14 26 44 240 66 471 11 109 -3 133 -62 109z"/>
<path d="M3066 2671 c-4 -5 -2 -12 3 -15 5 -4 12 -2 15 3 4 5 2 12 -3 15 -5 4
-12 2 -15 -3z"/>
<path d="M3502 3337 c-14 -16 -16 -30 -37 -206 -20 -159 -16 -181 25 -181 51
0 64 24 80 150 8 63 14 144 15 180 l0 65 -36 3 c-22 2 -40 -2 -47 -11z"/>
<path d="M3686 3324 c-4 -9 -4 -19 -1 -22 2 -3 7 3 11 12 4 9 4 19 1 22 -2 3
-7 -3 -11 -12z"/>
<path d="M3382 2594 c-24 -17 -29 -53 -10 -72 15 -15 132 -16 159 -2 24 13 27
75 3 84 -32 12 -129 6 -152 -10z"/>
<path d="M5086 3335 c4 -8 8 -15 10 -15 2 0 4 7 4 15 0 8 -4 15 -10 15 -5 0
-7 -7 -4 -15z"/>
<path d="M5232 2648 c5 -15 28 -23 28 -10 0 5 -7 13 -16 16 -10 4 -14 1 -12
-6z"/>
<path d="M6273 2990 c-36 -22 -48 -54 -58 -167 -6 -66 -5 -72 14 -83 30 -15
58 -4 76 31 14 27 37 215 28 232 -7 12 -26 8 -60 -13z"/>
<path d="M6190 2740 c0 -5 5 -10 10 -10 6 0 10 5 10 10 0 6 -4 10 -10 10 -5 0
-10 -4 -10 -10z"/>
<path d="M7024 3330 c-12 -5 -25 -13 -28 -19 -10 -16 -43 -251 -56 -408 -14
-158 -11 -173 41 -173 39 0 49 24 60 134 4 50 12 109 17 131 5 22 15 99 22
170 16 165 7 191 -56 165z m3 -167 c-3 -10 -5 -4 -5 12 0 17 2 24 5 18 2 -7 2
-21 0 -30z m-18 -162 c-5 -36 -12 -67 -15 -70 -6 -6 2 70 12 118 10 46 12 15
3 -48z m-22 -188 c-3 -10 -5 -4 -5 12 0 17 2 24 5 18 2 -7 2 -21 0 -30z"/>
<path d="M2715 3110 c3 -5 11 -10 16 -10 6 0 7 5 4 10 -3 6 -11 10 -16 10 -6
0 -7 -4 -4 -10z"/>
<path d="M4570 3110 c0 -5 5 -10 11 -10 5 0 7 5 4 10 -3 6 -8 10 -11 10 -2 0
-4 -4 -4 -10z"/>
<path d="M7530 5474 c-14 -3 -83 -14 -155 -25 -163 -26 -461 -88 -670 -140
-250 -62 -488 -138 -830 -264 -191 -70 -190 -69 -193 -97 -2 -14 26 -130 62
-259 36 -129 73 -265 84 -304 18 -67 20 -70 56 -78 56 -14 61 -3 58 112 -4
103 2 125 42 170 34 37 61 43 251 52 183 8 256 18 470 65 172 38 331 85 538
162 176 65 185 67 272 66 77 0 101 -5 168 -32 43 -18 89 -32 102 -32 46 0 116
126 137 248 10 63 10 85 -4 151 -32 156 -93 204 -263 207 -55 1 -111 0 -125
-2z m215 -34 c14 -6 -2 -9 -50 -9 -182 -2 -621 -73 -965 -155 -58 -14 -211
-55 -340 -91 -129 -36 -239 -65 -245 -65 -50 2 346 119 655 194 383 93 871
158 945 126z m-251 -435 c-71 -8 -148 -28 -258 -64 -87 -29 -160 -51 -162 -48
-5 5 6 10 211 81 120 42 137 46 220 45 l90 -1 -101 -13z m-1689 -24 c-3 -5
-19 -12 -35 -16 -17 -4 -37 -13 -45 -22 -13 -13 -15 -13 -15 2 0 9 15 22 33
30 37 16 71 19 62 6z m-66 -111 c0 -9 -4 -8 -9 5 -5 11 -9 27 -9 35 0 9 4 8 9
-5 5 -11 9 -27 9 -35z m1276 0 c-27 -10 -57 -18 -65 -18 -8 0 8 8 35 18 28 10
57 18 65 18 8 0 -7 -8 -35 -18z m-1268 -42 c-3 -8 -6 -5 -6 6 -1 11 2 17 5 13
3 -3 4 -12 1 -19z"/>
<path d="M3239 4827 c-27 -20 -41 -55 -30 -75 15 -29 46 -51 77 -58 41 -8 94
35 94 76 0 55 -94 93 -141 57z m92 -18 l24 -20 -25 8 c-14 4 -40 6 -57 5 -38
-2 -42 5 -10 18 33 13 43 12 68 -11z m-3 -67 c3 -9 -2 -13 -14 -10 -9 1 -19 9
-22 16 -3 9 2 13 14 10 9 -1 19 -9 22 -16z"/>
<path d="M5375 4250 c3 -5 8 -10 11 -10 2 0 4 5 4 10 0 6 -5 10 -11 10 -5 0
-7 -4 -4 -10z"/>
<path d="M5020 4232 c0 -5 9 -17 20 -27 15 -13 17 -21 9 -31 -6 -7 -7 -28 -3
-50 5 -30 8 -33 16 -20 5 10 7 23 5 30 -3 8 -1 18 5 24 8 8 2 21 -21 47 -17
20 -31 32 -31 27z"/>
<path d="M5565 4231 c-3 -5 -1 -12 5 -16 5 -3 10 1 10 9 0 18 -6 21 -15 7z"/>
<path d="M5460 4211 c0 -5 5 -13 10 -16 6 -3 10 -2 10 4 0 5 -4 13 -10 16 -5
3 -10 2 -10 -4z"/>
<path d="M5425 4200 c3 -5 8 -10 11 -10 2 0 4 5 4 10 0 6 -5 10 -11 10 -5 0
-7 -4 -4 -10z"/>
<path d="M5100 4174 c0 -8 5 -12 10 -9 6 4 8 11 5 16 -9 14 -15 11 -15 -7z"/>
<path d="M5137 4159 c7 -7 15 -10 18 -7 3 3 -2 9 -12 12 -14 6 -15 5 -6 -5z"/>
<path d="M4246 4124 c-5 -14 -4 -15 9 -4 17 14 19 20 6 20 -5 0 -12 -7 -15
-16z"/>
<path d="M3270 4049 c0 -5 5 -7 10 -4 6 3 10 8 10 11 0 2 -4 4 -10 4 -5 0 -10
-5 -10 -11z"/>
<path d="M3650 4010 c0 -5 7 -7 15 -4 8 4 15 8 15 10 0 2 -7 4 -15 4 -8 0 -15
-4 -15 -10z"/>
<path d="M3747 4008 c-15 -8 -16 -11 -2 -24 8 -8 19 -12 25 -9 5 3 10 0 10 -7
0 -9 3 -9 10 2 13 21 13 24 -8 37 -12 7 -24 8 -35 1z"/>
<path d="M4409 3963 c-13 -16 -12 -17 4 -4 16 13 21 21 13 21 -2 0 -10 -8 -17
-17z"/>
<path d="M3610 3911 c0 -5 5 -13 10 -16 6 -3 10 -2 10 4 0 5 -4 13 -10 16 -5
3 -10 2 -10 -4z"/>
<path d="M6893 1885 c-40 -17 -58 -52 -49 -98 13 -69 91 -103 150 -64 30 20
41 54 32 102 -11 57 -75 86 -133 60z m89 -22 c10 -9 18 -23 18 -31 0 -12 -4
-12 -20 3 -16 14 -29 16 -66 11 -47 -6 -47 -6 -29 14 22 24 72 26 97 3z m-8
-85 c5 -9 7 -20 3 -25 -11 -10 -41 11 -45 31 -5 23 26 18 42 -6z"/>
<path d="M5275 1775 c-19 -18 -25 -35 -25 -68 0 -51 13 -67 55 -67 53 0 96 59
80 109 -17 54 -70 67 -110 26z m73 3 c18 -18 16 -44 -2 -29 -8 7 -25 9 -40 5
-33 -8 -35 13 -3 26 30 12 31 12 45 -2z m2 -78 c9 -16 8 -22 -5 -26 -21 -8
-39 10 -32 30 9 22 24 20 37 -4z"/>
</g>
</svg>
